<?xml version="1.0" encoding="UTF-8"?>
<svg width="1561.6" height="1799.1" version="1.1" viewBox="0 0 1561.6114 1799.0979" xmlns="http://www.w3.org/2000/svg">
 <g transform="translate(726.46 242.87)">
  <path d="m271.43 1555.5c-14.781-0.478-30.531-1.4495-35-2.1589-4.4688-0.7095-17.969-1.846-30-2.5257-46.725-2.6398-76.727-5.8383-101.25-10.795-5.1562-1.042-12.469-2.4067-16.25-3.0323-3.7812-0.6257-10.812-2.063-15.625-3.194-7.4799-1.758-26.23-3.2166-61.875-4.8136-4.4688-0.2001-21.344-0.7508-37.5-1.2234-45.299-1.3252-70.594-2.9974-85.625-5.6604-7.5625-1.3397-21.625-3.3281-31.25-4.4186s-28.44-3.6232-41.811-5.6284c-13.371-2.0051-24.696-3.4077-25.167-3.117-1.84 1.1373-29.565-3.4588-34.486-5.7168-2.868-1.316-8.9007-2.9817-13.406-3.7014-4.5053-0.7196-9.6576-1.866-11.45-2.5473-1.7919-0.6812-9.8217-2.3727-17.844-3.7586-8.0222-1.386-19.93-3.595-26.461-4.9089-6.5313-1.3138-15.812-3.0728-20.625-3.9087-4.8125-0.8358-12.169-2.8011-16.349-4.3673-4.1793-1.5661-13.742-4.3698-21.25-6.2305-7.5082-1.8606-14.559-3.8491-15.668-4.4188-3.3915-1.7419-29.618-5.9405-45.483-7.2814-15.111-1.277-19.801-1.1018-31.25 1.1677-10.241 2.03-50.876 2.6503-58.427 0.8919-9.8909-2.3032-29.856-1.476-39.168 1.6228-6.8993 2.296-8.877 2.4402-17.915 1.307-5.5875-0.7007-11.415-1.9212-12.95-2.7124-3.9241-2.0226-8.4158-6.2931-8.4158-8.0011 0-0.7917-1.3438-2.7017-2.9863-4.2447-1.6424-1.543-3.3046-4.3973-3.6937-6.3428-0.6114-3.0568-1.2891-3.5375-4.9874-3.5375-6.9614 0-16.132-6.3619-23.164-16.069l-3.6007-4.9707-0.061-22.916c-0.057-21.188-0.2574-23.181-2.6589-26.43-1.4286-1.9322-2.6-4.5202-2.6032-5.7512-0.01-3.161-5.076-15.011-9.0988-21.276-1.8675-2.9082-3.3954-5.6036-3.3954-5.9896 0-0.3861-1.7173-4.4754-3.8161-9.0874-5.5311-12.154-5.7852-12.772-8.0726-19.635-1.1456-3.4375-2.5956-7.2268-3.2221-8.4205-0.6265-1.1939-1.1392-2.853-1.1392-3.6872 0-2.5205-7.7964-22.749-9.5837-24.866-0.9165-1.0854-1.6663-2.9176-1.6663-4.0718 0-1.154-1.3679-4.766-3.0398-8.0265-7.4116-14.454-10.187-21.792-15.716-41.553-1.2503-4.4688-2.8749-9.8125-3.6101-11.875-3.6211-10.158-11.74-36.637-12.118-39.52-0.2357-1.7986-0.997-5.7361-1.6918-8.75-0.6949-3.014-1.2771-9.2166-1.2939-13.784-0.017-4.5672-0.8187-12.442-1.782-17.5-2.0258-10.637-1.8535-7.9836-2.3423-36.071-0.2094-12.031 0.2938-29.188 1.1182-38.125 0.8245-8.9375 1.8061-19.625 2.1813-23.75 0.7991-8.783 2.8773-22.651 4.5895-30.625 0.6643-3.0938 1.7907-9.9212 2.5032-15.172 0.7126-5.2509 1.7744-11.217 2.3596-13.257 0.5853-2.0406 0.7792-5.2008 0.4309-7.0226-0.3482-1.8218-0.095-4.0122 0.5627-4.8676 0.6577-0.85542 1.8996-5.7741 2.7599-10.93 0.8602-5.1562 2.0757-10.667 2.7012-12.246 0.6255-1.5792 1.1372-4.5603 1.1372-6.6246s0.8271-5.3528 1.8381-7.3077c1.0109-1.9549 2.4441-7.6926 3.1849-12.75 0.7408-5.0578 1.6119-10.883 1.9357-12.946 2.1847-13.913 3.0703-21.101 3.5686-28.961 0.5319-8.3913 4.484-20.414 6.7106-20.414 0.5089 0 1.9694-2.9531 3.2454-6.5625 1.2761-3.6094 3.2914-7.9688 4.4784-9.6875 3.4463-4.9898 5.2372-14.695 4.9538-26.846-0.4538-19.458 0.1965-44.678 1.3868-53.779 1.5899-12.156 2.3929-20.932 2.9168-31.875 0.2469-5.1562 0.7652-10.219 1.1517-11.25 2.3631-6.3038 8.9807-39.477 11.72-58.75 2.2215-15.631 5.7903-33.454 7.8212-39.061 3.8858-10.727 6.3383-20.415 6.3383-25.037 0-2.3859 0.8905-6.7993 1.979-9.8076 1.0884-3.0083 3.8689-11.657 6.179-19.22 2.31-7.5625 6.5387-19.656 9.3971-26.875 2.8585-7.2188 6.0605-15.938 7.1158-19.375s2.686-7.3595 3.6239-8.7156 1.7052-3.7135 1.7052-5.2387 0.5625-3.1207 1.25-3.5456 1.2679-2.005 1.2898-3.5113c0.022-1.5063 0.8656-3.8306 1.875-5.1651s1.8352-4.725 1.8352-7.5344 0.7457-6.2175 1.6571-7.5736 2.6786-5.8406 3.9271-9.9656 3.4277-9.75 4.8427-12.5 2.4239-5.754 2.2421-6.6756 1.0741-5.7028 2.7909-10.625c1.7167-4.9221 3.4863-12.887 3.9323-17.699s1.6632-12.295 2.705-16.628c1.0665-4.4353 1.6113-10.444 1.2467-13.75-1.702-15.437-2.0873-33.229-0.7377-34.063 0.9378-0.57956 1.0119-1.6433 0.2237-3.2129-0.648-1.2906-1.2828-6.284-1.4107-11.096-0.2123-7.9904 0.1772-9.4956 4.4867-17.339 7.9917-14.545 10.841-19.231 14.305-23.526 1.8346-2.2746 5.7721-8.0732 8.75-12.886 5.3367-8.6244 5.4144-8.9115 5.4144-20 0-6.1875-0.6693-13.5-1.4874-16.25s-2.1263-8.6562-2.9071-13.125-2.0515-10.938-2.8237-14.375c-0.7723-3.4375-1.4329-14.993-1.468-25.68-0.054-16.471 0.2694-19.938 2.1237-22.769 1.2031-1.8364 2.1875-4.5061 2.1875-5.9326 0-1.4266 1.0564-4.6808 2.3475-7.2315s2.7618-6.6064 3.2683-9.0127c0.9419-4.4749 5.1519-15.444 9.3557-24.375 18.1-38.455 21.961-51.038 27.561-89.814 4.5843-31.744 5.233-34.719 10.213-46.836 4.5766-11.135 12.997-22.761 27.324-37.724 12.747-13.313 23.68-26.797 23.68-29.204 0-1.0107 0.4219-2.0251 0.9375-2.2542 3.743-1.6636 33.2-40.057 41.559-54.167 1.6292-2.75 4.4058-6.7922 6.1704-8.9827 1.7645-2.1905 5.4582-7.1594 8.2082-11.042 17.126-24.18 30.407-38.874 36.157-40.002 6.8558-1.3456 10.718-3.3486 10.718-5.5584 0-4.8123 20.036-19.347 29.352-21.292 8.4074-1.7558 23.184-7.571 32.524-12.799 1.375-0.76975 7-1.632 12.5-1.9162 9.1528-0.47288 11.255-0.0852 24.81 4.5758 8.9861 3.0899 19.063 5.5814 25.625 6.336 5.9481 0.68394 18.127 2.1644 27.065 3.2898 8.9375 1.1254 23.958 2.2163 33.38 2.4242 16.178 0.3569 25.325 1.8029 44.12 6.9756 14.305 3.9368 57.122 18.878 61.945 21.615 3.0554 1.7346 7.8194 4.2266 10.587 5.5378 6.871 3.2558 19.189 14.745 20.143 18.786 0.4285 1.8166 1.7928 4.428 3.0318 5.803 3.1592 3.506 4.63 7.916 5.6515 16.945 0.60165 5.318 0.46657 7.5459-0.42417 6.9954-0.79888-0.49373-1.572 1.2561-1.9886 4.5009-0.3749 2.9198-1.3794 8.8071-2.2322 13.083-1.828 9.165-0.43976 13.093 5.7435 16.253 2.0868 1.0663 5.8342 3.6902 8.3275 5.8308 9.7016 8.3296 12.932 10.767 14.268 10.767 2.2561 0 6.2888 5.2258 8.5609 11.094 1.1646 3.0077 1.8606 5.7254 1.5466 6.0394-0.31402 0.31401 0.22495 2.4757 1.1977 4.8038 2.7258 6.5238 2.3914 25.663-0.51474 29.457-1.2558 1.6396-3.2633 5.4799-4.4611 8.534s-3.264 7.0784-4.5916 8.943c-1.3277 1.8645-2.4139 3.9508-2.4139 4.6361 0 1.7133-13.205 9.7846-25.892 15.826-2.2096 1.0521-4.6169 3.0331-5.3496 4.4021-0.73268 1.369-3.1182 3.4127-5.3012 4.5416-3.8238 1.9774-6.7138 4.7207-18.113 17.194-2.9048 3.1785-5.7665 5.7791-6.3592 5.7791s-3.268 4.2579-5.9452 9.462-5.5812 10.054-6.4533 10.778c-0.87218 0.72383-1.5858 1.9801-1.5858 2.7918 0 0.81164-1.6299 3.6959-3.622 6.4094-1.9921 2.7136-4.2569 7.2988-5.0329 10.189-0.77594 2.8906-2.8023 6.9093-4.5029 8.9304-1.7007 2.0211-3.0921 4.4004-3.0921 5.2872 0 0.88682-1.0977 3.8994-2.4394 6.6946-1.3416 2.7952-3.1069 7.8946-3.9228 11.332-1.9379 8.1651-10.676 28.099-15.825 36.102-2.2344 3.4726-4.0625 7.2494-4.0625 8.3929s-2.3906 4.0742-5.3125 6.5127c-10.49 8.7543-24.847 24.119-28.792 30.813-2.9481 5.0018-7.6868 9.7602-17.77 17.844-16.898 13.548-39.335 35.685-44.683 44.085-2.1884 3.4375-6.958 10.025-10.599 14.638l-6.6204 8.3881-12.799 3.8766c-21.856 6.6202-24.436 7.5552-25.98 9.4157-0.8246 0.99358-2.4769 1.8065-3.6718 1.8065s-4.2447 1.4062-6.7775 3.125c-2.5327 1.7188-5.4237 3.125-6.4244 3.125-1.0818 0-1.8195 1.2033-1.8195 2.9679 0 1.6579-1.9602 5.1063-4.441 7.8125-8.8391 9.6424-14.666 27.476-15.044 46.04-0.2746 13.503-0.7481 19.463-2.7854 35.055-2.3426 17.928-3.0897 28.545-2.8588 40.625 0.1249 6.5312-0.4128 13.844-1.1948 16.25-0.8859 2.7266-1.6021 18.74-1.9007 42.5-0.2636 20.969-0.4896 38.81-0.5024 39.648-0.014 0.90802-0.8682 1.199-2.1152 0.72049-1.6986-0.6518-1.8855-0.35056-0.9942 1.6017 1.6438 3.6007 1.7396 14.053 0.197 21.496-1.1777 5.6816-1.0585 7.1119 0.8641 10.366 2.1996 3.7237 4.5908 14.862 5.1427 23.954 0.1556 2.5637 0.8193 5.3762 1.475 6.25 0.6556 0.87378 1.337 3.8387 1.5142 6.5887s1.4591 9.6822 2.8487 15.405c1.3895 5.7227 2.2171 10.714 1.839 11.092-0.378 0.37806 0.3374 2.7271 1.5899 5.2201s2.987 6.7827 3.8545 9.5327 2.2523 5.8438 3.0774 6.875c0.8252 1.0312 3.62 6.9375 6.2108 13.125s5.4903 12.938 6.4433 15 2.1014 6.2812 2.5518 9.375c0.4505 3.0938 1.3676 6.3208 2.0381 7.1713 0.6704 0.85045 0.861 2.9722 0.4236 4.715-0.5935 2.3647-0.2324 3.3765 1.4229 3.9876 3.1673 1.1692 4.0523 2.8938 4.0741 7.9387 0.01 2.4406 0.6941 5.1125 1.5191 5.9375s0.9988 1.5 0.3861 1.5c-0.6126 0-0.2439 0.70313 0.8194 1.5625 2.2435 1.8131 11.044 25.967 11.044 30.31 0 1.6145 1.3271 4.5255 2.9492 6.4688 4.6005 5.512 7.0127 10.98 12.251 27.771 2.6733 8.5686 6.4719 18.996 8.4414 23.171 1.9696 4.1755 7.2997 15.342 11.845 24.814 4.5451 9.4722 8.2637 17.523 8.2637 17.89 0 0.88347 4.8749 11.489 13.738 29.888 3.9741 8.25 7.635 17.531 8.1353 20.625s1.5492 6.4146 2.3308 7.3796c0.7817 0.96505 1.4885 4.9026 1.5708 8.75 0.082 3.8475 1.3599 10.933 2.8391 15.745 3.8708 12.593 4.8284 38.802 2.1542 58.963-1.1098 8.3669-2.0228 18.211-2.0287 21.875-0.01 3.6642-0.3656 9.6155-0.7992 13.225-0.7076 5.8915-1.0975 6.5625-3.8129 6.5625-1.7502 0-2.6905 0.5406-2.2316 1.2831 0.4362 0.7057 1.735 1.1276 2.8863 0.9375 1.7849-0.2948 2.0282 0.6449 1.6516 6.3782-0.4215 6.4169-0.3329 6.6452 1.9417 5 6.1635-4.4578 24.837-19.277 25.533-20.262 1.225-1.7347 9.3112-6.431 23.592-13.702 18.059-9.194 29.39-15.546 37.5-21.022 3.7812-2.5532 8.5625-5.3732 10.625-6.2665 2.0625-0.89329 7.0336-4.3178 11.047-7.6101 4.0132-3.2923 7.9507-5.9856 8.75-5.9851 0.79925 4.6e-4 5.3907-1.9302 10.203-4.2903 4.8125-2.3601 13.531-5.7548 19.375-7.5437 5.8438-1.7889 11.75-3.7677 13.125-4.3974 5.5429-2.5384 23.537-7.5176 36.38-10.067 7.491-1.4869 18.683-3.9056 24.87-5.3749 10.783-2.5607 14.256-2.6762 83.75-2.7853 102.02-0.16014 126.2 1.4696 156.39 10.54 7.8018 2.344 23.644 9.3072 32.982 14.496 1.7188 0.95515 7.3438 3.4974 12.5 5.6494s12.469 5.8514 16.25 8.2209c3.7812 2.3695 9.9688 5.7612 13.75 7.5372 3.7812 1.7759 11.395 5.4304 16.919 8.121 5.5242 2.6906 11.157 4.892 12.519 4.892 1.361 0 4.7149 1.2008 7.4531 2.6684 7.5037 4.0218 13.4 3.7229 18.376-0.93125 2.2599-2.1138 6.0776-4.5842 8.4838-5.49 2.4062-0.90562 6.0625-2.861 8.125-4.3451s7.125-4.6044 11.25-6.9341c8.9291-5.0429 8.4976-4.738 15.765-11.14 3.1706-2.793 6.593-5.0782 7.6053-5.0782s5.1681-2.338 9.2352-5.1955c6.6246-4.6545 14.677-9.3636 22.108-12.929 1.4327-0.6875 4.8959-2.4556 7.6959-3.9291 13.162-6.9265 46.3-23.137 56.966-27.866 6.5312-2.896 16.094-7.1574 21.25-9.4698 21.863-9.8051 39.286-15.774 65.625-22.484 9.625-2.4519 21.438-5.9009 26.25-7.6645 4.8125-1.7636 11.844-4.3425 15.625-5.7309 3.7812-1.3884 7.7585-2.9626 8.8382-3.4982 5.7669-2.8602 18.596-7.3314 22.412-7.8108 2.4062-0.30235 6.9062-1.1712 10-1.9307 14.849-3.6456 30.384-6.4911 35.438-6.4911 3.0759 0 10.001-0.86241 15.39-1.9165 5.3886-1.0541 17.501-2.2642 26.916-2.6891 14.681-0.66262 17.567-0.47875 20.269 1.2915 3.9119 2.5632 5.7381 2.6234 5.7381 0.18911 0-2.3219 3.7504-2.4394 6.7952-0.21288 1.9149 1.4002 2.1882 2.9954 1.7344 10.122-0.79975 12.56-3.5309 14.14-30.616 17.704-8.1339 1.0704-16.476 2.1833-18.539 2.4729-2.0625 0.28965-10.02 1.0579-17.683 1.7071-16.444 1.3932-27.004 3.218-37.405 6.4639-4.1735 1.3024-8.8742 2.368-10.446 2.368-4.9021 0-20.275 3.8247-30.716 7.6422-5.5 2.0109-13.656 4.7127-18.125 6.004-8.049 2.3259-29.034 10.064-42.728 15.756-3.9064 1.6238-9.2501 3.3409-11.875 3.816-5.693 1.0303-19.698 7.1377-20.926 9.1261-0.47763 0.77296-2.0008 1.4054-3.3846 1.4054-1.3839 0-4.8664 1.3272-7.7388 2.9494-2.8725 1.6221-9.1601 4.4985-13.973 6.3919-4.8125 1.8934-15.502 6.7537-23.754 10.801-8.2521 4.0469-15.48 7.3581-16.061 7.3581-0.58137 0-2.8295 0.81349-4.996 1.8077-2.1664 0.99426-9.7568 4.3602-16.867 7.48-7.1106 3.1197-16.111 7.5884-20 9.9304-3.8893 2.342-12.696 7.2041-19.572 10.805-13.593 7.1192-24.123 16.107-25.234 21.54-0.71324 3.4871-1.4068 3.8796-6.192 3.5042-2.6064-0.2045-7.9486 5.5351-7.9486 8.5399 0 2.0492 10.677 4.053 36.875 6.9206 8.9375 0.9783 19.344 2.8974 23.125 4.2645 8.2089 2.9681 13.163 4.3639 45 12.678 21.725 5.6732 54.103 15.007 64.375 18.557 2.0625 0.7129 9.6562 3.2304 16.875 5.5944 27.731 9.0815 35.814 13.013 42.648 20.742 5.2859 5.9791 5.9411 9.4047 2.9173 15.252-2.7219 5.2636-6.91 6.5763-13.092 4.1029-2.9421-1.1773-6.3061-1.6553-8.2374-1.1705-3.2009 0.8034-11.257-2.009-29.236-10.206-3.7812-1.7239-13.062-5.054-20.625-7.4002-7.5625-2.3461-16.281-5.1365-19.375-6.2008-3.0938-1.0645-7.5938-2.365-10-2.8903-2.4062-0.5252-11.688-3.2581-20.625-6.073s-19.016-5.4166-22.396-5.7817c-3.3806-0.3652-6.7275-1.2449-7.4375-1.9549-0.71013-0.7101-3.0068-1.2954-5.1036-1.3006-6.6635-0.016-42.158-12.294-53.188-18.398-3.7812-2.0924-16.438-7.0292-28.125-10.971s-22.693-7.9048-24.457-8.8075c-1.7641-0.9026-9.6391-3.9875-17.5-6.8555-16.032-5.8487-36.765-14.77-48.043-20.673-4.125-2.159-9.0796-4.3068-11.01-4.773-1.9306-0.46612-6.2655-2.7841-9.6332-5.1512s-8.8194-5.6522-12.115-7.3002c-3.2955-1.648-10.063-5.0256-15.04-7.5059-10.176-5.0718-24.34-9.9086-37.267-12.726-4.7771-1.0411-13.859-3.0072-20.182-4.3692-6.4112-1.381-19.404-2.83-29.375-3.276-16.964-0.75877-101.69-0.59482-120.38 0.23293-15.273 0.67655-34.996 2.5456-36.469 3.456-2.5279 1.5623-17.22 3.1158-19.277 2.0382-1.155-0.60491-2.5269-0.51448-3.256 0.2146-1.2606 1.2606-12.288 4.1788-22.873 6.053-16.929 2.9974-48.75 14.336-48.75 17.371 0 0.53675-2.8395 1.7036-6.31 2.5931-3.4705 0.88938-8.9549 3.0239-12.188 4.7431-3.2326 1.7194-10.94 5.8056-17.128 9.0808-12.072 6.3899-23.083 13.474-28.125 18.095-1.7188 1.5754-4.8094 3.2631-6.868 3.7508-4.8054 1.1381-6.882 2.8998-6.882 5.8385 0 1.5065-0.88719 2.347-2.4773 2.347-2.3993 0-8.0706 4.8306-13.208 11.25-2.6926 3.3646-12.833 11.955-18.304 15.507-5.9548 3.8659-11.644 9.9752-14.597 15.674-3.1567 6.0932-6.1079 10.178-12.482 17.275-4.8032 5.3482-8.4659 11.356-15.699 25.751l-5.1085 10.167-5.4967 0.3934c-4.6466 0.3325-6.5373-0.3233-12.224-4.2401-6.6425-4.5749-6.8465-4.6245-16.112-3.9239-17.044 1.289-69.244 17.223-74.827 22.84-1.4246 1.4332-4.137 3.5637-6.0276 4.7343-4.1088 2.5443-4.3584 4.0385-0.8288 4.9615 3.8707 1.0123 2.5026 4.8584-2.6234 7.3753-6.9786 3.4265-21.246 9.7747-27.574 12.269-9.0066 3.55-22.63 10.747-26.787 14.15-2.0625 1.6888-6.2732 4.9763-9.3572 7.3054-5.7337 4.3304-22.003 24.636-34.727 43.343-8.7171 12.816-16.101 19.58-22.472 20.587-2.5819 0.4079-9.1943 0.2799-14.694-0.2845-20.442-2.0973-33.664-12.235-25.543-19.585 2.53-2.2897 2.7928-2.2651 13.062 1.2214 19.63 6.6647 28.935 2.8204 48.5-20.036 6.4075-7.4859 15.734-17.817 20.726-22.959s9.4541-10.002 9.9158-10.8c1.9596-3.3875 20.316-15.934 31.979-21.857 8.6572-4.3966 14.574-8.4168 18.876-12.825 3.4458-3.5312 8.9484-7.7839 12.228-9.4502 5.9558-3.0264 9.146-5.8953 17.996-16.183 4.036-4.692 34.576-26.412 37.138-26.412 0.9886 0 9.3651-6.2828 14.953-11.216 4.8966-4.3224 9.5458-11.86 9.5458-15.477 0-5.505 5.8297-13.988 11.312-16.46 4.9846-2.2477 5.0982-2.243 7.6631 0.3219 3.2678 3.2677 2.417 7.494-2.5006 12.422-7.3085 7.3237-6.0165 12.437 2.8083 11.113 4.434-0.665 6.7595-1.9131 9.8257-5.2736 5.8516-6.4134 5.3843-5.2975 10.909-26.056 0.5489-2.0625 2.4941-9.0938 4.3226-15.625 10.027-35.813 11.522-52.43 7.5197-83.545-3.5794-27.825-8.7942-47.487-17.46-65.83-4.4442-9.4078-7.601-17.73-10.668-28.125-4.0974-13.889-7.5279-19.726-17.09-29.08-4.7425-4.6393-10.409-11.385-12.592-14.99-4.7405-7.8288-10.545-23.477-13.401-36.13-3.8275-16.953-4.7704-20.39-7.8306-28.549-1.6761-4.4688-3.5431-9.25-4.1489-10.625-0.6057-1.375-1.8928-4.75-2.8603-7.5-0.9674-2.75-3.4693-9.2188-5.5597-14.375s-4.1045-10.781-4.4758-12.5-2.9629-6.6406-5.7591-10.938l-5.0839-7.8125h-6.9572c-5.6155 0-8.2607 0.77959-13.715 4.042-3.7169 2.2231-6.7579 4.4936-6.7579 5.0454s-2.7815 6.7486-6.1812 13.77c-3.3997 7.0219-7.394 16.705-8.8764 21.517-2.687 8.7235-8.028 23.06-9.9792 26.787-2.3519 4.4919-7.2913 18.917-9.8746 28.838-1.5216 5.8438-3.8161 13.719-5.0988 17.5-1.2828 3.7812-2.7101 9.5288-3.1719 12.772-0.9212 6.4698-2.8784 8.9517-6.0879 7.7201-1.6852-0.64667-1.9333-1.8254-1.2887-6.1238 0.4391-2.9276 0.3225-5.617-0.259-5.9764-0.5815-0.35938-0.9812-5.629-0.8882-11.71 0.098-6.4324-0.6003-13.83-1.6706-17.686-1.2696-4.5748-1.5489-8.6424-0.9013-13.125 1.3255-9.1752 0.8925-28.3-0.6837-30.199-0.7722-0.93035-1.795-14.023-2.4567-31.445-0.6236-16.418-1.4904-33.226-1.9262-37.351-1.2513-11.842-1.994-20.605-2.4895-29.375-0.2525-4.4688-0.7796-13.469-1.1714-20s-1.0389-18.906-1.438-27.5-1.2463-20.079-1.8826-25.523c-0.7154-6.1214-0.7099-11.607 0.014-14.375 1.4903-5.6956 1.4828-21.858-0.018-39.477-2.3322-27.374-2.4495-44.443-0.3819-55.583 1.4766-7.9557 1.751-14.162 1.1055-25-1.1951-20.065-1.0321-29.453 0.5971-34.39 1.7983-5.4489 4.7918-38.981 3.6456-40.836-0.4793-0.77553-0.1858-3.0408 0.6523-5.0341 1.2395-2.9478 1.1564-5.0733-0.4451-11.391-1.0828-4.2717-2.6719-8.51-3.5313-9.4185-0.8594-0.90847-1.5625-2.7449-1.5625-4.0808s-1.8281-4.3943-4.0625-6.7962c-3.0476-3.2761-5.6239-4.6545-10.312-5.5174-3.6326-0.66859-6.7251-0.68639-7.3845-0.0425-1.5099 1.4743 1.4457 4.9638 4.2042 4.9638 3.0721 0 3.8932 1.2502 2.5138 3.8276-0.8776 1.6397-0.6408 2.8116 0.8739 4.3263 1.1426 1.1426 2.5311 4.9469 3.0855 8.4539 0.58 3.6689 1.8493 6.8472 2.9893 7.4852 1.461 0.81759 1.6278 1.5349 0.6352 2.7309-0.9509 1.1458-0.9595 2.6391-0.029 5.0855 2.1961 5.7762 2.8807 29.027 1.1767 39.966-0.8569 5.5-1.466 12.812-1.3537 16.25s0.524 14.969 0.9148 25.625c0.8145 22.207-1.2063 44.428-4.1429 45.555-2.6361 1.0116-6.486-1.4722-7.2124-4.6531-1.6972-7.4324-2.6107-16.979-1.8303-19.128 0.4789-1.319 0.4215-3.2658-0.1275-4.3263s-0.9276-6.4043-0.8414-11.875c0.094-5.9965-0.6519-12.677-1.8797-16.822-1.1201-3.7812-2.9669-12.219-4.1041-18.75s-3.4374-17.219-5.1116-23.75-3.8683-16.656-4.8758-22.5c-1.8474-10.716-3.7988-20.838-4.9821-25.841-0.3532-1.4939-2.131-4.4854-3.9506-6.6478-3.7011-4.3985-18.869-14.91-25.178-17.45-2.2607-0.90983-4.6711-2.7021-5.3565-3.9828-0.7348-1.3732-2.6068-2.3286-4.5628-2.3286h-3.3167l2.7357-2.5487c3.1066-2.8942 3.3244-3.8626 1.3197-5.8673-0.7788-0.77878-1.0777-2.2975-0.6643-3.375 1.5135-3.9441 14.037-1.8704 25.842 4.2791 6.2828 3.273 7.4055 3.4765 12.812 2.3233 3.2594-0.69518 5.9263-1.5313 5.9263-1.858s-2.6719-1.7744-5.9375-3.217c-16.74-7.3951-20.138-14.334-8.1902-16.723 5.2671-1.0534 13.991 3.5507 15.798 8.337 1.6772 4.4434 2.1116 4.4826 5.8296 0.52494 1.6146-1.7188 3.6472-3.125 4.5168-3.125s4.2462-2.3066 7.5035-5.1258 7.6509-5.8713 9.7635-6.7825c9.599-4.14 20.965-8.0918 23.274-8.0918 1.8305 0 3.2334-1.6438 5.0672-5.9375 3.0223-7.076 5.9424-10.326 19.563-21.771 5.6719-4.7662 11.115-10.217 12.095-12.112 0.9802-1.8956 2.4202-8.1956 3.2001-14 0.7798-5.8045 2.2224-13.708 3.2059-17.564s2.0356-9.1994 2.3381-11.875 1.2254-7.6695 2.0509-11.098c1.2674-5.2628 1.1659-7.5253-0.652-14.534-1.8576-7.1622-1.9585-9.8226-0.7353-19.392 3.5754-27.972 5.2329-45.532 5.058-53.585-0.2233-10.279-2.6693-20.585-6.0177-25.355-1.3129-1.8703-5.0724-8.1817-8.3545-14.025-9.5712-17.042-29.615-39.387-40.136-44.746-4.3077-2.1941-16.477-4.6708-27.365-5.5695-2.3461-0.19363-3.75-1.0052-3.75-2.1677 0-3.6916 6.9498-5.6335 20.915-5.8442 7.3783-0.11125 15.358 0.39385 17.732 1.1226 3.83 1.1755 5.2784 0.85455 12.835-2.8439 4.6848-2.2929 10.768-5.6779 13.518-7.5222s8.0937-4.6546 11.875-6.2451c3.7812-1.5905 9.338-4.6169 12.348-6.7253 5.7242-4.0092 12.545-8.275 17.369-10.863 3.0101-1.6146 3.6299-3.2945 4.5806-12.415 0.3265-3.1317 0.883-6.5067 1.2366-7.5 0.3537-0.99326 0.9159-3.4218 1.2492-5.3968 0.3334-1.975 1.4982-4.5764 2.5883-5.7811 1.0902-1.2046 1.8921-2.6825 1.782-3.2842-0.8798-4.8082 2.3909-7.6785 6.8151-5.9808 1.7524 0.67247 1.9544 2.0723 1.3114 9.0908-0.418 4.5628-1.5921 11.784-2.6093 16.047-1.0171 4.2632-1.6686 9.3057-1.4478 11.206 0.3595 3.0932 1.1205 3.6055 7.2765 4.8989 3.7812 0.79449 7.8665 1.8618 9.0784 2.3718 1.2119 0.50998 2.9376 0.31793 3.8349-0.42677 1.9564-1.6237 26.353-7.6718 30.955-7.6741 5.3168-2e-3 10.217 7.2516 5.1938 7.6888-1.2032 0.10475-2.84 0.25291-3.6374 0.32932-0.7974 0.0764-2.4849 1.0361-3.75 2.1326s-4.1766 2.6234-6.4701 3.3931c-6.2304 2.0909-15.882 9.6524-18.943 14.841-1.932 3.2744-2.4896 5.7143-1.9562 8.5581 0.4931 2.6284-0.1083 5.9717-1.7728 9.8547-2.0671 4.8225-3.0249 5.805-5.3384 5.4765-2.3229-0.32984-2.9394-1.3907-3.5016-6.0253-0.9362-7.7176-3.0938-11.127-8.4598-13.369-2.5112-1.0493-5.911-2.9658-7.5551-4.259-2.237-1.7597-4.1618-2.1638-7.6497-1.606-3.6178 0.57851-4.8353 0.2897-5.4418-1.2908-0.5815-1.5154-1.6674-1.8227-4.2463-1.2016-5.2586 1.2665-15.37 6.6053-20.965 11.069-2.75 2.1941-7.0432 5.2135-9.5405 6.7096-2.4972 1.4962-5.2373 4.4029-6.0891 6.4593s-2.3243 3.739-3.2721 3.739c-2.8737 0-1.9615 2.342 2.9642 7.6104 5.1036 5.4587 11.645 8.2874 35.95 15.546 18.626 5.5625 26.138 9.1544 34.933 16.703 7.9491 6.8227 10.941 7.6122 16.991 4.4836 4.9397-2.5544 4.6522-3.5765-0.7591-2.6984-5.1917 0.8425-8.0529 0.0147-8.0529-2.3295 0-2.4031 2.4808-3.5842 4.1089-1.9561 2.1328 2.1328 3.166 1.7021 5.1583-2.1505 1.0073-1.9479 6.2248-6.8281 11.595-10.845 16.056-12.011 22.555-17.978 27.196-24.971 2.7782-4.1855 5.7855-7.1168 8.1454-7.9395 4.7371-1.6514 5.9858 0.0514 3.1791 4.335-3.6262 5.5343-0.9743 4.7547 6.8329-2.0087 14.926-12.93 22.922-24.048 24.404-33.932 0.7726-5.1517 0.5913-5.8162-1.7539-6.4294-2.2099-0.57792-2.6155-1.6441-2.6155-6.8751 0-5.1157-0.7154-7.0952-4.1187-11.396-4.7559-6.01-19.834-19.544-27.134-24.354-2.7486-1.8113-7.1873-4.7343-9.8638-6.4956-8.4364-5.5517-20.521-17.736-19.703-19.866 2.7345-7.126 34.524 7.4395 50.771 23.263 3.0668 2.9868 6.723 6.0095 8.125 6.7172 1.4019 0.70762 3.2828 2.817 4.1797 4.6875s2.2411 3.4009 2.9872 3.4009c2.0007 0 4.6717 3.9829 4.7173 7.0344 0.022 1.4627 0.8186 3.3058 1.7705 4.0958 0.9518 0.78999 3.5974 5.0758 5.8789 9.5241 3.2324 6.3022 3.8162 8.4198 2.6443 9.5917-1.1697 1.1697-1.8373 1.1706-3.0039 4e-3 -0.825-0.825-2.5125-1.5-3.75-1.5-1.6667 0-2.25 0.97223-2.25 3.75 0 2.9167 0.5555 3.75 2.5 3.75 2.5339 0 2.8495 0.65168 3.0263 6.25 0.071 2.2512 0.8851 3.2367 2.9112 3.5244 3.9289 0.558 3.5421 2.5194-2.0789 10.544-2.6902 3.8404-4.6073 7.2666-4.2602 7.6136 1.8258 1.8258 23.926-11.467 24.098-14.494 0.029-0.51562-2.1279-0.9375-4.7937-0.9375-2.6829 0-5.5107-0.79981-6.3336-1.7914-1.9946-2.4034 1.0468-4.2079 15.96-9.4695 15.91-5.6132 18.978-7.9026 22.523-16.803l2.9271-7.3499-3.9266-10.031c-2.1596-5.5172-5.0237-10.8-6.3646-11.739-1.3409-0.93922-2.4704-2.3789-2.51-3.1993-0.15022-3.1142-17.531-16.217-36.9-27.819-1.2714-0.7615-1.8248-1.9604-1.2982-2.8125 2.3954-3.8758 24.157 0.42124 29.571 5.8389 6.2602 6.2651 13.539 11.426 16.115 11.426 1.5152 0 2.5841 0.81204 2.5841 1.9632 0 2.5869 9.907 14.287 12.097 14.287 0.93836 0 2.3503-1.4138 3.1376-3.1417 1.3396-2.94 10.253-9.8985 18.58-14.505 2.0103-1.1122 4.4217-2.6583 5.3586-3.4359 4.6518-3.8606 18.326-2.7003 18.326 1.5551 0 0.8988 2.1094 2.6353 4.6875 3.8589s6.2024 2.9552 8.054 3.848c2.8522 1.3753 3.6068 1.3337 4.9395-0.27212 3.4728-4.1844-4.3307-11.986-14.635-14.631-5.34-1.3709-6.1706-2.0076-6.1706-4.7302 0-1.7303-0.76066-4.066-1.6904-5.1904-1.3654-1.6514-38.562-20.63-48.31-24.649-1.375-0.5669-5.875-2.4458-10-4.1754-7.0827-2.9697-28.253-9.9582-40.625-13.411-3.0938-0.86336-6.1875-1.9792-6.875-2.4796s-4.3438-1.7721-8.125-2.8261c-18.16-5.0617-27.937-8.4515-36.699-12.724-8.8139-4.2978-11.302-6.8592-8.4044-8.6503 1.4329-0.88563 16.085 2.6671 38.854 9.4209 10.641 3.1563 15.256 3.8841 16.533 2.607 0.766-0.76604 2.1091-0.85462 3.3149-0.21863 2.8862 1.5223 5.9883 2.6078 14.527 5.0834 4.125 1.196 10.594 3.419 14.375 4.94s9.125 3.4495 11.875 4.2854c12.219 3.7142 28.998 11.626 42.5 20.041 4.8125 2.9994 11.68 7.1774 15.262 9.2845 3.5815 2.1071 10.548 6.62 15.48 10.029l8.9682 6.1975 6.3949-3.6415c11.388-6.485 13.9-17.309 5.6315-24.267-4.2534-3.579-3.8059-3.4642-14.568-3.735-6.3309-0.15928-8.3664-0.74109-10.625-3.037l-2.7939-2.84 3.5066-2.8338c3.9719-3.2098 3.7921-3.4931-5.3816-8.4746-6.7426-3.6614-16.867-7.5806-26.25-10.162-3.7812-1.0402-11.656-3.3211-17.5-5.0687-5.8438-1.7476-13.156-3.5213-16.25-3.9415s-9.2812-1.5334-13.75-2.4737c-8.0266-1.6889-23.363-3.7632-56.25-7.6078-9.2813-1.085-20.709-2.7723-25.394-3.7496-4.6855-0.97727-10.178-1.7769-12.204-1.7769s-4.662-0.54836-5.8558-1.2186c-11.77-6.6078-24.481-8.9925-32.687-6.1321l-4.0141 1.3993 2.8901 3.0944c3.9427 4.2215 8.0038 6.1179 15.39 7.1866 6.7163 0.97178 9.375 2.4512 9.375 5.2168 0 2.7243-7.631 6.6937-12.878 6.6989-6.5051 6e-3 -21.309-3.478-24.161-5.6869-2.216-1.7161-2.2236-1.8953-0.1478-3.5088 2.7524-2.1394 2.7923-4.0501 0.106-5.081-3.8103-1.4621-27.017 1.8-31.209 4.3869-5.0164 3.0959-7.8587 9.33-5.3327 11.696 2.8726 2.691 8.6232 3.5892 8.6232 1.3468 0-3.0323 3.7108-2.1855 13.735 3.1341 5.1478 2.7319 10.282 4.9671 11.41 4.9671 1.1273 0 2.7716 0.86973 3.6538 1.9327 2.5248 3.0422-2.2091 8.5875-7.7391 9.0656-6.2724 0.54231-15.502-3.795-17.886-8.4055-2.4663-4.7692-5.8928-5.6524-17.969-4.6316-7.8716 0.66539-10.902 1.6104-17.584 5.4838-7.8698 4.5616-10.381 7.2614-20.628 22.18-2.3612 3.4375-6.5296 8.6711-9.263 11.63-4.3541 4.7136-10.96 14.857-19.707 30.262-1.4318 2.5216-4.6717 7.2937-7.1998 10.605-2.5281 3.311-4.3132 6.3033-3.9669 6.6496 0.9637 0.96365 5.3639-3.4211 10.411-10.374 2.5041-3.4498 5.1926-6.8349 5.9745-7.5224 2.6213-2.305 12.487-17.452 14.248-21.875 3.1378-7.8828 7.5759-13.438 15.14-18.95 8.6989-6.3391 13.548-8.3242 20.657-8.4552 4.6002-0.0848 8.9815 2.2222 7.3393 3.8645-0.3326 0.33252 0.9679 0.3738 2.8898 0.0917 4.0642-0.59649 8.461 1.9174 22.73 12.996 5.4351 4.2197 11.879 8.9062 14.319 10.414 4.3661 2.6984 5.9141 6.8377 2.9292 7.8326-1.6867 0.56225-18.104-4.0179-20.941-5.8422-2.4556-1.579-12.212-0.87731-17.288 1.2434-2.2619 0.94508-6.5388 3.7065-9.5042 6.1364-5.4103 4.4333-12.168 5.9448-13.918 3.1131-1.0377-1.679 2.0186-6.3046 8.3467-12.633 5.2579-5.2579 5.5527-7.3704 0.7212-5.169-5.3557 2.4402-10.805 7.9897-16.682 16.988-7.7124 11.808-12.783 17.119-16.347 17.119-3.4211 0-3.506-0.69178-0.863-7.0348l2.0168-4.8402-2.6214 2.3628c-1.4417 1.2995-4.3947 5.5183-6.5621 9.375-5.5072 9.7998-14.258 18.547-22.35 22.342-6.9199 3.2451-8.5492 4.5786-24.169 19.781-6.3533 6.1833-8.3789 8.9468-7.9001 10.778 0.7305 2.7936-6.6502 15.228-9.7435 16.415-1.0656 0.40891-1.9374 1.647-1.9374 2.7514s-7.0274 9.1173-15.616 17.806c-15.965 16.151-16.799 17.466-19.386 30.555-0.779 3.9411-1.9197 7.4768-2.535 7.8571-0.6393 0.3951-0.542 1.9572 0.2269 3.6448 1.7528 3.8471-3.2948 40.648-6.4406 46.957-7.1436 14.327-11.525 24.154-14.211 31.875-1.6742 4.8125-4.7303 13.531-6.7913 19.375-11.65 33.034-18.99 58.108-19.027 64.997-0.016 3.0952-0.651 7.8776-1.4102 10.628-1.8287 6.6237-1.6665 11.172 0.7408 20.771 1.1011 4.3905 2.0815 10.098 2.1788 12.684 0.097 2.5857 0.888 5.2917 1.7574 6.0132 0.9887 0.8205 1.3244 2.8915 0.8964 5.529-0.4669 2.8775 0.1576 5.9562 1.9662 9.6922 1.4577 3.0114 2.6505 6.103 2.6505 6.8704 0 0.76737 1.7363 2.6316 3.8586 4.1428 3.473 2.473 3.7741 3.1998 3.0131 7.2726-0.465 2.4888-1.3807 5.173-2.0349 5.9649-2.0973 2.539-7.3574 3.108-11.166 1.208-3.7723-1.8818-5.4386-1.0766-4.2394 2.0486 0.3856 1.0048-1.3417 4.2232-3.9182 7.3003l-4.6078 5.5032 5.6977 0.37693c6.6163 0.43768 9.0129 2.6235 7.8698 7.1779-0.6009 2.3941-1.3862 3.0282-3.0834 2.4895-1.2525-0.39753-3.6244-0.2241-5.2709 0.38537-2.9241 1.0824-2.8993 1.1289 1.0689 2.001 5.4359 1.1948 5.3339 4.7046-0.2368 8.1474-2.8695 1.7735-5.9696 2.5585-9.3224 2.3607-3.4003-0.20064-5.8231 0.42745-7.4988 1.944-2.8587 2.5871-5.2463 12.282-4.2618 17.305 0.401 2.0462 0.1266 3.4375-0.678 3.4375-2.2762 0-4.0109 4.5898-2.8851 7.6332 1.0037 2.7133 1.0952 2.6698 2.4291-1.1569 1.4441-4.1425 3.7062-5.0364 6.2663-2.4763 2.0436 2.0436 1.7954 13.014-0.4326 19.125-1.0026 2.75-2.1025 10.062-2.4443 16.25-0.8569 15.515-4.5692 36.001-7.616 42.029-0.9116 1.8034-1.3657 3.5708-1.0091 3.9274 0.9626 0.96254-2.9249 9.6686-4.3172 9.6686-0.6583 0-0.9217 1.0522-0.5854 2.3381 0.6896 2.6369-0.1899 5.9826-5.7925 22.037-2.1594 6.1875-5.0234 12.774-6.3645 14.637-1.3412 1.8628-2.4384 4.5015-2.4384 5.8637s-0.4968 2.7839-1.104 3.1591c-0.6071 0.37524-1.4902 3.7746-1.9624 7.5541-0.4723 3.7795-1.3168 7.155-1.8769 7.5012-0.9075 0.56084-2.5683 8.1964-3.2703 15.035-0.4144 4.0375-3.9068 15.798-6.4957 21.875-1.3181 3.0938-2.8013 7.2681-3.2961 9.2764s-1.9813 5.0265-3.3033 6.7072c-3.2348 4.1124-4.8644 10.076-6.2208 22.766-0.6246 5.8438-2.0416 14.562-3.149 19.375-1.1073 4.8125-2.42 11.562-2.9171 15s-1.4998 7.375-2.2281 8.75-1.6876 4.4688-2.1316 6.875c-0.4441 2.4062-2.72 8.875-5.0576 14.375s-4.9325 13.375-5.7663 17.5c-0.8339 4.125-2.2807 10.875-3.2151 15-0.9345 4.125-1.9309 8.9062-2.2143 10.625s-1.401 6.7812-2.4836 11.25-2.5134 10.938-3.1795 14.375-1.8533 8.7812-2.6382 11.875-1.6436 8.4375-1.9082 11.875-0.8426 9.1447-1.2844 12.683c-0.9211 7.3775 0.2783 14.542 2.3206 13.861 0.7647-0.2549 2.3596-4.3041 3.5442-8.9982 2.32-9.1927 4.3686-11.674 7.2553-8.7883 1.5126 1.5122 1.5642 3.5078 0.33 12.778-0.8045 6.042-2.6689 15.481-4.1432 20.975-2.9888 11.138-4.3468 17.025-6.0534 26.24-1.2753 6.8864-2.4045 11.644-6.0696 25.573-1.3492 5.1276-2.2135 9.9474-1.9206 10.711 0.2929 0.76331-1.394 7.818-3.7487 15.677-6.8032 22.706-16.02 59.04-19.638 77.414-0.7445 3.7812-2.1109 9.1496-3.0363 11.93-1.6854 5.063-2.4756 9.8423-7.018 42.445-1.341 9.625-2.9209 20.312-3.511 23.75-2.4667 14.372-3.7437 27.32-4.4379 45-0.4049 10.312-1.0312 21-1.3918 23.75-1.2853 9.8028-1.4339 53.881-0.2065 61.25 0.687 4.125 1.172 8.9932 1.0777 10.818-0.3392 6.5664 7.3255 42.032 9.8186 45.432 1.4648 1.9976 5.0316 17.629 5.0316 22.051 0 2.2439 1.0623 5.1839 2.3914 6.618 6.1214 6.6057 10.088 18.206 6.2248 18.206-0.6139 0-1.1162 0.5625-1.1162 1.25s1.112 1.25 2.4711 1.25c1.3592 0 3.3926 1.4062 4.5188 3.125 1.1262 1.7187 2.4751 3.125 2.9976 3.125 1.8184 0 2.404-7.3584 1.1613-14.593-0.688-4.0052-1.478-9.2728-1.7556-11.706-0.2775-2.4331-1.0645-5.8963-1.7487-7.6959s-1.6255-6.6442-2.0918-10.766c-0.7747-6.8474-0.6155-7.618 1.8469-8.9358 1.4821-0.7932 3.6579-1.12 4.8351-0.726 2.2851 0.7646 10.265 16.134 10.265 19.771 0 1.1964 2.5312 6.8566 5.625 12.578 3.0937 5.7219 5.625 11.896 5.625 13.72 0 4.2244 2.1967 13.458 5.1096 21.478 2.6143 7.1973 5.1757 16.426 5.5158 19.874 0.2503 2.5367 3.837 5.7509 6.4176 5.7509 1.9641 0 5.457-4.8743 5.457-7.6153 0-1.9395 2.7776-10.976 6.5763-21.394 1.9829-5.4382 5.5677-9.7407 8.1159-9.7407 4.1879 0 12.808 12.784 12.808 18.995 0 1.3418-1.3877 6.5731-3.0837 11.626-2.6309 7.8373-3.1069 11.694-3.242 26.265-0.1453 15.661 0.056 17.307 2.4237 19.828 2.0533 2.1856 2.4236 3.7253 1.8082 7.5178-0.4968 3.0613-0.251 5.0923 0.6863 5.6717 1.0887 0.6728 1.1333 3.106 0.1753 9.5624-2.3826 16.057-2.7612 26.111-1.3603 36.123 1.888 13.494 3.955 15.229 3.7275 3.1296-0.097-5.1386 0.4385-11.874 1.1891-14.968 0.7506-3.0938 1.3818-9 1.4027-13.125 0.077-15.229 6.4579-49 11.256-59.574 1.3541-2.984 2.4744-6.7875 2.4895-8.4522 0.015-1.6646 0.7742-3.9146 1.6868-5 2.1041-2.5022 4.9362-12.278 3.9972-13.797-0.39-0.6311 0.1878-1.6494 1.284-2.2629 2.0341-1.1384 4.0789-4.205 7.305-10.956 0.9969-2.0858 5.4945-7.5663 9.9948-12.179 7.1762-7.3549 8.5124-9.5019 10.865-17.458 2.5725-8.6976 8.3276-20.698 11.864-24.738 0.9227-1.054 3.7563-6.1165 6.2971-11.25 2.5407-5.1335 6.4271-10.86 8.6363-12.726 2.2092-1.8657 4.3441-5.0291 4.7442-7.0296 0.7703-3.8514 3.9787-5.9673 6.3241-4.1708 0.7722 0.5915 3.7371 0.8289 6.5887 0.5275 4.987-0.5271 5.2847-0.8097 7.8125-7.4152 1.4453-3.7769 2.6279-7.439 2.6279-8.1379 0-0.699 1.4062-2.9421 3.125-4.9847 1.7187-2.0427 3.125-5.001 3.125-6.5744 0-5.2669 7.1309-11.829 9.2059-8.4711 0.3319 0.537-0.2148 4.8797-1.2148 9.6506-2.381 11.359-1.7269 13.926 1.8165 7.131 3.0792-5.905 7.643-22.631 7.6732-28.122 0.025-4.5097 4.8383-19.747 6.948-21.995 0.9108-0.9702 2.5682-1.3723 3.7643-0.9135 1.9067 0.7318 2.074 2.5624 1.553 16.992-0.3212 8.8947-0.2095 15.941 0.2482 15.658 0.4578-0.2829 1.5417-3.7745 2.4086-7.759 0.867-3.9845 3.799-16.244 6.5156-27.244 2.8448-11.519 5.4967-26.096 6.254-34.375 0.7232-7.9062 1.7446-15.219 2.2699-16.25 0.5253-1.0312 2.2944-1.875 3.9315-1.875 3.6345 0 4.5154 3.2161 4.7282 17.262 0.1573 10.385-3.8727 30.833-8.5428 43.346-1.4076 3.7715-2.5593 7.7346-2.5593 8.807 0 1.95-10.359 22.95-12.776 25.898-2.1518 2.6253-3.7947 1.7583-2.9612-1.5625 0.4371-1.7419 0.2418-3.125-0.4413-3.125-0.6741 0-1.8328 2.3906-2.5749 5.3125-2.3276 9.1651-12.618 29.875-19.404 39.051-7.2887 9.8557-8.8967 11.419-12.418 12.072-1.6688 0.3095-3.2619 2.6667-5 7.3978-1.4029 3.819-3.7523 8.8781-5.221 11.243-1.4686 2.3645-4.467 7.9554-6.6632 12.424-4.3315 8.8136-5.6249 11.333-7.541 14.688-0.6872 1.2031-1.7871 3.705-2.4442 5.5596-2.3184 6.5435-12.477 9.5514-12.601 3.7311-0.098-4.5834-11.563 12.698-16.98 25.594-1.4897 3.5463-3.0932 9.2453-3.5635 12.664-1.5717 11.428-6.4406 28.025-8.5709 29.217-3.2715 1.8307-7.523-1.0404-6.477-4.374 0.7407-2.3608 2.5837-10.774 6.6767-30.479 1.2923-6.2212-0.2406-5.8838-3.0503 0.6717-9.1056 21.244-17.696 47.724-19.742 60.852-0.4285 2.75-1.6001 14.543-2.6036 26.206-1.7975 20.894-1.7868 21.246 0.7245 23.919 2.0765 2.2104 2.3814 3.6083 1.6451 7.5436-1.0221 5.4632-3.089 7.4372-8.9507 8.5487-2.4729 0.4688-4.0625 1.517-4.0625 2.6785 0 3.1283 6.2368 12.806 8.7713 13.61 2.3695 0.7521 2.9181 1.8719 4.2972 8.7713 0.624 3.122 0.014 4.5871-3.5128 8.4375-2.3474 2.5627-4.9554 4.6595-5.7956 4.6595-0.9885 0-1.1877 0.772-0.5643 2.1875 0.5298 1.2031 1.0118 3.875 1.0712 5.9375 0.09 3.1292 0.8321 3.997 4.483 5.242 6.1777 2.1066 18.406 1.9717 26.012-0.287 4.6444-1.3793 13.714-2.0345 32.199-2.3263l25.733-0.4062 1.0775 2.8338c3.0106 7.9185 29.561 5.1003 50.33-5.3425 6.3378-3.1866 12.367-6.4258 13.398-7.1982 3.4148-2.5579 45.451-21.546 55.408-25.028 11.105-3.8841 13.494-3.2636 10.962 2.8476-1.5388 3.715-7.2838 7.6695-23.245 16.001-4.8125 2.5118-9.7344 5.4356-10.938 6.497-2.5337 2.2353-2.9067 6.4317-0.625 7.032 4.3059 1.1327 18.976 6.0392 28.275 9.4571 23.928 8.7942 102.68 27.77 130.16 31.362 13.314 1.7402 27.877 4.8618 45.862 9.8303 14.222 3.929 39.684 7.6794 67.888 9.9997 14.583 1.1996 20.598 1.553 55 3.2308 22.818 1.113 31.837 2.1197 33.125 3.6973 1.8309 2.2431 8.1379 3.1239 11.477 1.6027 3.1497-1.4351 3.6635-2.799 1.5472-4.107-0.7432-0.4592-1.0106-2.1923-0.59429-3.8512 0.78378-3.1228 0.48724-3.3655-5.7836-4.7346-3.6271-0.7919-5.8525-5.1448-3.7204-7.2769 0.89833-0.8984 2.4424-0.3365 5.0082 1.8225 3.2456 2.731 13.392 5.6937 14.772 4.3135 2.7109-2.711-0.24326-9.619-3.3044-7.7271-0.73309 0.4531-3.8339-0.574-6.8907-2.2825s-7.6848-3.7983-10.284-4.644c-2.5996-0.8458-5.8361-2.3014-7.1922-3.2349-1.3561-0.9334-3.6061-1.7065-5-1.718-1.3939-0.013-6.5593-2.402-11.479-5.3125-4.9194-2.9104-10.685-6.2499-12.812-7.421-2.2305-1.2278-3.8682-3.14-3.8682-4.5164 0-2.041-1.1943-2.4829-8.2403-3.0484-4.5322-0.3638-8.8916-1.313-9.6875-2.1093-0.79595-0.7964-1.4472-3.5288-1.4472-6.0722 0-4.6075-0.0228-4.6273-6.25-5.4372-12.664-1.647-18.487-5.691-22.533-15.646l-2.9626-7.2908-13.502-3.3412c-7.4263-1.8377-15.01-3.6666-16.852-4.0645-7.344-1.5852-9.5558-7.9172-4.0303-11.538 2.9227-1.915 4.3469-1.9699 14.355-0.5535 20.865 2.9531 29.435 7.7955 27.936 15.784-0.42037 2.2407-0.13053 5.2584 0.64409 6.7057 1.2002 2.2427 2.5581 2.6317 9.1852 2.6317 4.2772 0 9.5443 0.5068 11.705 1.1265 2.5325 0.7262 4.385 0.6691 5.215-0.1608 0.88293-0.883 2.2862-0.2092 4.4681 2.145 1.982 2.1386 3.9251 3.1468 5.1554 2.6746 1.3494-0.5177 2.646 0.4649 4.0959 3.1043 1.1668 2.1241 4.0221 7.0397 6.3451 10.924 2.323 3.884 4.2449 7.7454 4.2708 8.581 0.0926 2.9848 7.9218 8.7456 18.036 13.271 10.895 4.8748 36.767 13.472 47.219 15.691 9.4549 2.0071 30.87 5.1439 35.117 5.1439 2.0669 0 4.4329 0.675 5.2579 1.5 2.1906 2.1906 1.8715 9.4178-0.47376 10.73-1.5463 0.8654-0.80189 1.5328 3.4375 3.0815 13.335 4.8722 26.792 7.204 56.036 9.7109 8.5938 0.7366 16.535 1.6096 17.646 1.9399 4.3744 1.2994 31.98 5.5304 36.106 5.5337 2.4076 0 10.283 1.1339 17.5 2.5152 7.2174 1.3813 19.31 3.0883 26.873 3.7933s16.126 1.7468 19.031 2.3149c2.9046 0.5683 9.6546 0.899 15 0.7351 25.014-0.767 31.025-0.7028 49.719 0.5299 11 0.7255 23.256 1.8659 27.235 2.5343 15.313 2.5723 37.235 2.9971 47.765 0.9256 5.5-1.0819 14.219-2.5655 19.375-3.297 10.747-1.5246 35.579-5.8786 43.455-7.6195 2.9317-0.648 10.666-1.1781 17.188-1.1781 13.308 0 14.906-1.2822 6.2321-5-4.5377-1.9452-5.625-3.0192-5.625-5.5568 0-2.3437 0.8271-3.3532 3.2447-3.96 5.075-1.2737 17.54 0.4784 22.916 3.2214 6.2361 3.1814 10.176 3.3732 19.464 0.9476 4.125-1.0772 11.719-2.583 16.875-3.3459 5.1562-0.763 14.156-2.8471 20-4.6315 5.8438-1.7843 16.25-4.8272 23.125-6.762 19.84-5.5833 46.783-15.256 55.609-19.963 11.201-5.974 17.516-12.456 17.516-17.979 0-5.4252-4.8274-11.374-10.083-12.425-4.0609-0.8121-15.323 2.1232-18.667 4.8652-3.9118 3.2077-9.6215 5.3618-16.486 6.2195-6.5579 0.8193-7.3569 0.64-10.311-2.3144-6.0508-6.0508-2.2625-19.362 5.5575-19.526 1.0366-0.021 4.5265-1.446 7.7552-3.1647 3.2286-1.7188 6.5991-3.1255 7.49-3.126 2.8818 0 16.549-7.0673 19.001-9.8229 1.3096-1.4719 2.9188-2.6761 3.5756-2.6761 1.7966 0 18.752-8.3639 32.256-15.911 17.266-9.6501 28.326-21.636 30.881-33.464 2.6401-12.227 3.8071-15.658 8.3826-24.649 5.3908-10.593 5.426-16.034 0.1445-22.311-1.7849-2.1213-3.2454-4.8133-3.2454-5.9821 0-1.9105-4.0682-8.0235-13.248-19.907-7.555-9.7801-27.396-17.468-54.252-21.02-23.358-3.0895-40.283-2.0864-56.523 3.3504-8.6755 2.9042-12.672 3.019-15.253 0.4379-1.7418-1.7418-1.7529-2.3458-0.1025-5.5364 1.0185-1.9699 2.9324-3.9244 4.2528-4.3435 1.3205-0.419 3.0671-1.5646 3.8812-2.5458 1.2196-1.4693 0.25237-2.3972-5.4874-5.2641-3.8322-1.9141-11.62-5.7986-17.305-8.6321s-14.275-6.3769-19.087-7.8743c-4.8125-1.4973-10.438-3.3233-12.5-4.0578-16.666-5.9354-30.178-9.014-48.125-10.965-5.1562-0.5607-13.312-1.6603-18.125-2.4437-4.8125-0.7835-20.562-1.5556-35-1.7158l-26.25-0.2915 0.20257-4.2304c0.23793-4.969 2.5415-7.4496 11.037-11.886 8.7201-4.5535 18.864-4.3343 45.919 0.9926 12.316 2.4249 30.183 4.913 41.591 5.7919 20.356 1.5681 24.375 2.4737 24.375 5.4922 0 0.9335 0.81153 2.0086 1.8034 2.3893 2.1163 0.8121 8.9634-0.9674 11.353-2.9505 2.254-1.8707 8.7262 1.5001 10.92 5.6872l1.6399 3.1298 4.3292-6.4914c3.3934-5.0881 5.4102-6.8045 9.3294-7.9396 13.44-3.8925 22.396-12.001 29.964-27.128 6.336-12.665 6.7951-16.52 2.4475-20.549-3.2612-3.0224-3.3525-3.3602-1.3115-4.8525 1.929-1.4107 2.0122-2.2098 0.6895-6.6245-1.0536-3.5167-2.3631-5.236-4.3721-5.7402-1.5775-0.396-5.0166-2.7536-7.6425-5.2393-8.5435-8.0875-19.749-15.297-28.602-18.404-8.8741-3.1136-9.9418-3.3642-27.74-6.5123-15.062-2.6643-31.558-9.5559-31.558-13.184 0-0.5423 3.3441-2.4869 7.4314-4.3212 5.7998-2.6027 7.5924-4.068 8.1647-6.6735 0.96637-4.3998-2.0448-10.324-9.5653-18.819-6.6348-7.4942-7.5149-11.382-3.2527-14.367 3.7785-2.6466 7.0374-2.4389 12.222 0.7787 2.4062 1.4934 6.7898 4.0195 9.7411 5.6137 2.9514 1.5941 9.4201 6.9167 14.375 11.828 9.0039 8.9247 21.678 18.966 34.634 27.44 3.7812 2.4731 9.3054 6.8738 12.276 9.7796 2.9705 2.9057 8.6736 7.3985 12.674 9.9837 9.0058 5.8208 15.57 10.99 22.752 17.914 3.0466 2.9378 7.482 7.135 9.8564 9.3273 6.5232 6.0227 15.765 15.792 29.2 30.868 6.6679 7.482 19.301 20.519 28.074 28.97 8.7728 8.4516 17.595 17.799 19.604 20.771 2.0096 2.9725 5.7038 7.9359 8.2091 11.03 2.5055 3.0937 5.2801 7.0312 6.1659 8.75 2.6318 5.1065 25.873 35.774 31.557 41.641 2.8914 2.9844 9.162 9.8183 13.934 15.186 4.7726 5.3681 11.523 11.67 15 14.004 3.4775 2.334 9.1351 6.4967 12.573 9.2502 6.4455 5.163 20.288 12.346 31.25 16.214 11.34 4.0025 20.276 8.4914 21.082 10.591 3.4969 9.1127-5.885 11.114-17.442 3.7211-8.5175-5.4486-10.001-5.7876-9.4981-2.1706 0.33013 2.375-0.1885 2.8125-3.3339 2.8125-4.9539 0-14.03-3.9919-20.533-9.0307-5.6172-4.3525-19.25-15.63-21.814-18.045-0.84675-0.7978-4.1044-2.4299-7.239-3.627-5.5819-2.1318-5.8225-2.119-11.671 0.6202-6.1971 2.9027-10.718 7.6048-14.507 15.09-1.2158 2.4017-3.3504 5.6137-4.7435 7.1379-2.1601 2.3634-2.421 3.8351-1.7725 10 0.41824 3.9758 0.18949 12.407-0.50838 18.737l-1.2689 11.508 5.9115 9.1171c3.2514 5.0144 9.0232 13.898 12.826 19.742 3.8031 5.8437 10.322 14.281 14.487 18.75 8.8984 9.5478 16.18 18.429 21.521 26.25 7.4606 10.924 39.329 39.79 49.591 44.919 2.5731 1.2861 4.3945 3.4538 5.3196 6.3308 0.93938 2.9215 2.2899 4.5078 4.0652 4.7747 1.4621 0.2199 3.2191 1.4475 3.9044 2.7279 0.68525 1.2805 2.3811 2.6884 3.7685 3.1287 2.9635 0.9405 6.5855 8.7797 5.5558 12.024-0.54137 1.7058 0.36388 2.7035 3.7298 4.1098 7.867 3.287 4.5542 8.8213-3.3904 5.6637-10.505-4.1753-30.455-13.253-44.04-20.038-18.505-9.2431-25.074-11.177-53.125-15.642-13.966-2.2226-49.797-4.5746-52.5-3.4461-1.0312 0.4305-15.938 1.1996-33.125 1.7091-24.765 0.7343-32.493 1.3761-37.24 3.0928-3.2949 1.1913-7.3872 1.8991-9.0942 1.5728-1.7069-0.3262-5.7611-0.081-9.0094 0.5447s-10.968 1.65-17.156 2.276-14.062 1.7623-17.5 2.5251c-3.4375 0.7629-9.3438 1.8846-13.125 2.4927-9.3482 1.5038-32.313 6.6279-43.785 9.77-14.094 3.8602-26.423 6.0922-43.09 7.8005-8.25 0.8458-16.091 2.0928-17.424 2.7712-9.9159 5.0451-79.259 7.7562-144.45 5.6477zm-248.71-44.777c2.6628-1.4251 2.2616-3.7286-0.64949-3.7286-0.94156 0-2.6666-0.9548-3.8335-2.1215-1.1782-1.1783-4.2255-2.1809-6.8532-2.2548-2.6024-0.074-5.4848-0.7185-6.4052-1.4339-3.5131-2.7301-4.6578-2.9021-6.5728-0.9871-2.9244 2.9245-2.5694 5.9041 0.58421 4.9033 3.0383-0.9644 6.19 1.2978 6.19 4.4428 0 1.2335 0.70313 2.4887 1.5625 2.7893 2.6025 0.91 13.279-0.1655 15.978-1.6095zm-43.709-10.58c-0.0615-1.4659-7.5806-2.0545-7.5806-0.5935 0 1.1226 3.476 2.2811 6.0035 2.0009 0.89569-0.099 1.6054-0.7327 1.5771-1.4074zm8.435-6.82c0.3125-0.9375-0.15625-1.4063-1.0938-1.0938-0.90234 0.3008-1.8867 1.2852-2.1875 2.1875-0.3125 0.9375 0.15625 1.4063 1.0938 1.0938 0.90233-0.3008 1.8867-1.2851 2.1875-2.1875zm4.6094-5.0781c-0.4249-0.6875-2.1456-1.25-3.8238-1.25s-3.0512 0.5625-3.0512 1.25 1.7207 1.25 3.8238 1.25c2.2309 0 3.5019-0.5208 3.0512-1.25zm-440.07-35.107c-0.4025-0.6512-1.2646-0.8547-1.9158-0.4522s-0.8547 1.2645-0.4522 1.9157c0.4024 0.6513 1.2645 0.8548 1.9157 0.4523 0.6513-0.4025 0.8548-1.2645 0.4523-1.9158zm-65.559-281.29c0-0.6875-0.5625-0.9024-1.25-0.4775-0.6875 0.4248-1.25 1.335-1.25 2.0225s0.5625 0.9023 1.25 0.4775c0.6875-0.4249 1.25-1.335 1.25-2.0225zm136.25-393.05c0-0.99067-0.5023-1.8012-1.1163-1.8012-1.3797 0-2.7237 3.2433-1.7482 4.2188 1.0941 1.0942 2.8645-0.4 2.8645-2.4176zm1.9827-48.989c1.9412-2.5781 4.5874-5.4562 5.8803-6.3958 3.759-2.7316 6.8474-11.578 7.701-22.058 0.4351-5.3427 1.9674-13.993 3.4052-19.224 1.4377-5.2304 2.7238-13.555 2.8579-18.498 0.1341-4.9436 0.8918-9.7692 1.6837-10.723 0.792-0.95427 1.6932-6.7545 2.0028-12.889 0.3096-6.135 1.2115-12.841 2.0042-14.902 3.5903-9.3333 6.5706-31.799 7.0471-53.122 0.5791-25.908 0.8876-27.922 4.1215-26.895 1.2943 0.41078 2.715 0.16149 3.1572-0.55397 0.4545-0.7355-0.2826-1.3008-1.6961-1.3008-1.375 0-2.8198-0.51753-3.2107-1.15-0.391-0.63252 0.1-6.9606 1.0899-14.062 1.3037-9.3489 1.6628-21.192 1.3011-42.912-0.2747-16.5-0.072-35.906 0.451-43.125 0.9225-12.74-0.2954-26.4-3.3435-37.5-0.6608-2.4062-1.5577-8.5938-1.9931-13.75s-1.1108-11.062-1.5008-13.125-0.832-7.2613-0.9822-11.553c-0.4905-14.011-2.4564-12.291-13.196 11.545-4.9163 10.912-9.4543 30.208-8.241 35.042 0.3904 1.5556-0.064 4.7155-1.0103 7.0219-1.467 3.576-4.344 21.421-4.4044 27.318-0.01 1.0312-0.908 6.9375-1.9943 13.125-2.5129 14.313-4.3977 31.628-4.4904 41.25-0.1595 16.551-0.1725 23.924-0.049 27.5 0.072 2.0625-0.3859 10.781-1.0164 19.375-2.0838 28.406-3.8551 74.302-3.0391 78.75 0.4414 2.4062 1.0073 19.281 1.2576 37.5 0.2502 18.219 0.5838 33.969 0.7412 35 0.1573 1.0312-0.1793 8.7229-0.748 17.093-1.3239 19.483-0.2395 21.79 6.2135 13.22zm43.646-62.806c-1.0828-1.7521-5.6291-4.0515-5.6291-2.8471 0 0.78689 2.9564 2.7231 6.0113 3.9369 0.2124 0.0844 0.041-0.406-0.3822-1.0898zm30.621-5.0067c0-0.6875-0.5625-1.25-1.25-1.25s-1.25 0.5625-1.25 1.25 0.5625 1.25 1.25 1.25 1.25-0.5625 1.25-1.25zm-291.25-214.3c0-0.30318-0.5625-0.89888-1.25-1.3238s-1.25-0.17685-1.25 0.55122c0 0.72808 0.5625 1.3238 1.25 1.3238s1.25-0.24805 1.25-0.55122zm291.25-177.79c12.521-2.8114 12.486-2.7562 4.2807-6.6942-12.157-5.835-14.702-10.616-7.4173-13.935 2.8209-1.2853 3.6224-1.0348 7.0349 2.1983 2.1182 2.0069 5.4897 6.0104 7.4922 8.8968l3.6408 5.248 5.9219-1.8701c5.6283-1.7774 20.292-5.9127 35.297-9.9539 6.1364-1.6527 12.323-6.1406 10.701-7.7627-0.3363-0.33636-2.4598 0.26526-4.7187 1.3369-4.1475 1.9676-16.576 5.7227-30.357 9.1721-4.125 1.0325-8.0344 2.4014-8.6875 3.042-2.6049 2.5551-6.4876 0.95559-11.586-4.7727-5.929-6.662-6.4256-8.3999-2.9341-10.269 3.1253-1.6726 10.082-1.6759 10.082-5e-3 0 0.70909 0.8549 1.6173 1.8997 2.0182 2.6742 1.0262 25.289-6.4552 38.98-12.896 6.3279-2.9766 11.996-5.4119 12.596-5.4119 1.7331 0 19.182-13.746 22.589-17.796 6.6577-7.9122 12.373-13.178 19.652-18.107 7.2578-4.9144 15.532-13.023 15.532-15.22 0-0.57042 1.7023-2.9415 3.783-5.269 5.9926-6.7038 13.717-18.67 13.717-21.249 0-1.2967 0.49765-2.3576 1.1059-2.3576 0.60823 0 2.9672-4.2354 5.2421-9.412 3.1251-7.1112 4.8633-9.5944 7.1106-10.158 5.2329-1.3134 5.777 1.1409 2.1594 9.7402-1.8406 4.3754-3.6449 9.3614-4.0095 11.08-1.126 5.308 10.885-7.4343 17.45-18.512 9.3079-15.707 10.955-19.468 14.161-32.338 1.6819-6.7512 4.97-16.212 7.307-21.025 4.8464-9.98 6.5738-18.125 3.8439-18.125-4.3107 0-3.1936-6.4957 1.4836-8.6268 5.842-2.6618 15.591-11.91 26.724-25.352 6.095-7.3589 12.778-14.634 14.851-16.167 3.9038-2.8862 7.1397-10.018 5.6436-12.439-0.47023-0.76084-2.0571-1.0367-3.5264-0.6131-1.4693 0.42362-9.7027 1.0067-18.296 1.2958s-19.791 1.1268-24.882 1.8617c-15.23 2.1984-32.618 8.1761-32.618 11.214 0 0.48729 6.3281 0.69045 14.062 0.45147 7.8793-0.24345 16.722 0.1948 20.112 0.99673 4.7056 1.1133 6.6997 1.083 8.9782-0.13633 3.4565-1.8499 7.0961-0.83717 6.1212 1.7032-1.2447 3.2437-11.893 6.1458-34.899 9.5112-4.8125 0.704-13.343 2.5206-18.957 4.037-9.2768 2.5058-10.252 3.0642-10.702 6.1277-0.74509 5.0766 1.0258 8.4642 4.9168 9.4052 3.4594 0.83668 10.218 7.3579 10.316 9.9535 0.0622 1.6508-8.2457 1.3384-16.652-0.62618-4.6063-1.0765-6.5058-1.0651-7.8459 0.0471-1.4718 1.2215-1.134 1.8532 2.0152 3.7684 2.0809 1.2654 3.7834 2.8716 3.7834 3.5692 0 2.1324-3.231 1.4137-5.6473-1.2562-1.5572-1.7207-3.6024-2.4359-6.4226-2.2459-3.0129 0.20291-5.0783-0.61864-7.5965-3.0215-1.9022-1.8151-6.2711-4.6166-9.7086-6.2256s-7.8519-3.9952-9.8097-5.3027c-3.5179-2.3494-3.709-2.3431-16.25 0.53224-6.9797 1.6002-16.628 3.6149-21.44 4.4769-8.4541 1.5144-14.778 3.5291-20 6.3714-1.375 0.74846-4.6465 2.0532-7.27 2.8995-2.6235 0.84628-6.8423 3.5784-9.375 6.0714-9.8261 9.6718-23.063 24.796-25.354 28.969-1.3211 2.4062-2.9375 5.2188-3.5919 6.25-13.876 21.868-20.719 36.204-23.865 49.997-1.0169 4.459-2.7488 7.9756-4.9326 10.016-5.432 5.0742-7.7329 11.093-15.525 40.613-6.1287 23.219-11.039 38.623-13.114 41.142-0.6153 0.74685-1.3109 4.4338-1.5458 8.1931-0.3755 6.0099-0.126 6.8959 2.0666 7.3381 1.3715 0.2766 4.8479 2.1226 7.7252 4.1023 2.8774 1.9797 5.5748 3.5994 5.9944 3.5994 1.221 0 8.7377 5.5089 9.2839 6.804 0.2734 0.64843 1.8076 2.4894 3.4092 4.0911 2.8338 2.8338 3.039 2.8573 7.6279 0.8741 2.5936-1.1209 8.3719-2.859 12.841-3.8624zm-247.5-120.41c0-0.6875-0.5625-1.25-1.25-1.25s-1.25 0.5625-1.25 1.25 0.5625 1.25 1.25 1.25 1.25-0.5625 1.25-1.25zm214.98-16.562c-0.015-2.1959-0.2709-2.4145-1.1675-0.99719-0.6316 0.99843-0.871 2.264-0.5321 2.8125 1.0843 1.7543 1.7193 1.076 1.6996-1.8153zm-9.9808-110.94c-0.7359-1.375-1.6192-2.5-1.963-2.5-0.3437 0-0.023 1.125 0.713 2.5 0.7359 1.375 1.6192 2.5 1.963 2.5 0.3437 0 0.023-1.125-0.713-2.5zm309.67-42.41c23.666-7.9063 26.838-10.515 28.983-23.829 0.74252-4.6107 2.6046-9.911 4.4744-12.736 3.1904-4.821 3.1958-4.8754 1.425-14.254-0.97767-5.1778-1.9797-9.5245-2.2267-9.6592-0.24703-0.13477-2.2545-1.5088-4.461-3.0533-4.9107-3.4374-5.3631-3.4634-5.3631-0.30828 0 3.4196-1.0116 3.1621-7.3404-1.8689-5.2799-4.1972-20.004-11.881-22.767-11.881-2.9663 0 4e-3 3.2446 5.6104 6.1302 6.7382 3.4676 14.916 12.634 14.275 15.999-0.23548 1.2352-1.6732 2.4235-3.1948 2.6408-5.9427 0.84867-34.061-10.508-41.486-16.756-2.0603-1.7336-6.3154-7.0169-9.4556-11.741-3.1403-4.7236-6.3972-8.8199-7.2377-9.1029-1.1833-0.39834-1.1618-0.95833 0.095-2.4814 3.1868-3.8618-1.1081-3.7578-8.9378 0.21635-8.3725 4.2497-8.6092 4.5997-17.21 25.456-3.6793 8.9224-4.2175 13.537-2.7918 23.939 0.5967 4.3534 1.4979 6.1903 3.4375 7.0067 4.4534 1.8745 7.0038 4.4763 7.0038 7.145 0 1.6971 1.2241 2.9791 3.6531 3.8259 2.0092 0.70041 4.2474 2.3838 4.9736 3.7408 0.72626 1.357 3.0198 3.0597 5.0968 3.7838 2.0944 0.7301 3.7764 2.2134 3.7764 3.3302 0 1.1076 0.534 1.6838 1.1866 1.2804 0.65266-0.40336 4.7037 0.45142 9.0024 1.8995 5.7574 1.9396 9.6421 2.4609 14.751 1.9796 13.266-1.2498 24.461-3.0374 28.592-4.5659 3.1366-1.1604 4.5106-1.1846 5.5969-0.0983 3.374 3.374-4.1439 8.5304-21.227 14.559-7.9376 2.8012-8.2043 3.011-3.8581 3.0355 2.5679 0.0145 9.5991-1.6208 15.625-3.6339zm-272.66-36.001c-1.2706-1.2706-2.3191 0.64236-1.2765 2.3292 0.7875 1.2743 1.0819 1.2753 1.5054 5e-3 0.2894-0.86849 0.1865-1.9189-0.2289-2.3343zm176.74-49.57c0-1.9753-5.5737-6.0284-6.7174-4.8847-0.77548 0.7755 4.1029 6.2482 5.7799 6.484 0.51563 0.0725 0.9375-0.6472 0.9375-1.5994zm-259.97-20.834c0.6684-1.2489 1.2153-2.9034 1.2153-3.6767 0-2.2128-2.3359-0.20155-4.3986 3.7873-1.6859 3.2601-1.6814 3.5606 0.044 2.8987 1.0584-0.40616 2.4713-1.7603 3.1397-3.0092zm13.833-11.498c1.4675-2.9219 4.0388-7.1406 5.714-9.375s2.7537-4.0625 2.3966-4.0625c-1.2248 0-10.302 13.124-11.023 15.938-1.0986 4.287-0.04 3.3781 2.9126-2.5zm184.76 1527.8c-7.284-1.2322-13.145-4.245-15-7.7105-1.1951-2.233-1.0519-2.9883 0.8268-4.362 1.2497-0.9139 3.2353-1.6615 4.4125-1.6615 4.516 0 26.428 4.9396 28.112 6.3373 2.9432 2.4427 2.0079 4.9407-2.5652 6.8514-4.6874 1.9586-6.9656 2.0373-15.786 0.5453zm-331.65-4.8672c-3.2698-3.613-2.2256-10.404 1.7692-11.506 1.7187-0.4741 2.4363-0.9181 1.5946-0.9866-0.8417-0.069-2.4057-1.8173-3.4755-3.8859-2.4266-4.6926-0.7116-8.7387 3.704-8.7387 2.6078 0 9.7955 4.7241 12.1 7.9525 0.9959 1.3953 3.5617-0.084 3.6222-2.0888 0.1479-4.896 11.86-12.458 29.686-19.168 8.8928-3.3473 12.769-2.558 12.769 2.5999 0 3.079-3.8031 5.9548-12.5 9.4525-2.4063 0.9677-7.6984 3.6932-11.76 6.0566-4.0619 2.3634-9.8276 4.5724-12.812 4.9087-4.6544 0.5247-5.4271 1.0217-5.4271 3.49 0 1.7284-0.9474 3.1789-2.3716 3.6309-1.5423 0.4895-2.1626 1.5521-1.7738 3.0389 0.7796 2.981-5.0557 7.6269-9.5795 7.6269-1.8632 0-4.3581-1.0724-5.5443-2.3832zm91.784-49.25c-12.344-4.2243-0.4121-15.688 21.02-20.197 9.7825-2.0579 10.875-2.495 37.714-15.089 18.453-8.659 34.906-13.83 42.312-13.299 1.6155 0.1162 4.5618-0.9462 6.5474-2.36 13.007-9.2622 31.829-14.024 54.265-13.728 3.4375 0.045 10.188-0.7265 15-1.715s12.406-2.4499 16.875-3.2475c24.563-4.3839 37.046-7.6816 41.875-11.062 4.5096-3.1572 4.9704-3.973 4.698-8.3171-0.3791-6.0451-1.059-6.5284-12.373-8.7948-6.9678-1.3957-3.2579-10.292 5.9425-14.25 7.2101-3.1017 23.264-5.6349 28.95-4.5682 5.8808 1.1032 25.302 13.513 34.76 22.212 5.125 4.7132 10.918 8.0556 17.156 9.8974 6.1257 1.8088 8.4737 4.6057 14.827 17.661 3.3794 6.944 3.9617 9.1 2.6786 9.9184-0.9017 0.5751-2.4832 0.6598-3.5144 0.1882s-4.4062-0.982-7.5-1.1344c-5.7406-0.2826-16.174-1.9682-26.25-4.2406-3.0938-0.6977-15.188-1.5265-26.875-1.8416-21.758-0.5866-31.312 0.437-45 4.8214-3.6842 1.1801-10.612 2.0087-16.875 2.0186-22.092 0.035-73.529 9.7209-79.375 14.947-1.375 1.2293-4.1875 2.6102-6.25 3.0685-6.152 1.3673-35.546 10.671-45.625 14.441-13.657 5.1084-13.075 4.9219-29.435 9.4386-9.5574 2.6389-19.51 6.4795-27.242 10.512-6.7002 3.4945-12.58 6.3219-13.065 6.2832-0.4858-0.039-2.8451-0.742-5.243-1.5625zm-183.16-105.89c-1.4052-1.5526-2.4985-5.1534-2.8493-9.384-0.5599-6.7511-0.4765-6.9574 5.0468-12.481 3.0888-3.0888 6.5142-5.616 7.612-5.616 2.5635 0 10.8 7.2077 12.063 10.557 2.1511 5.7021-4.4791 11.944-8.4593 7.9642-2.3728-2.3728-3.2412-0.1741-1.5467 3.9167 2.2738 5.4893 0.974 7.5625-4.7411 7.5625-3.2705 0-5.5867-0.819-7.1255-2.5194zm394.08-7.5469c-1.2031-0.7194-2.1875-2.2769-2.1875-3.461 0-4.4846 10.61-14.529 21.51-20.362 1.5313-0.8195 6.4586-1.871 10.95-2.3365 7.0669-0.7327 9.0483-0.4426 14.727 2.1558 8.2839 3.7904 9.7777 7.6737 4.8482 12.603-1.8128 1.8128-5.9653 3.9649-9.2279 4.7824-13.837 3.4674-16.355 4.0084-24.682 5.3014-4.8125 0.7474-9.875 1.6436-11.25 1.9917-1.375 0.3482-3.4844 0.044-4.6875-0.6751zm-459.39-17.637c-1.8776-1.8775-2.0344-4.7968-0.2577-4.7968 1.5099 0 2.8934 3.0771 2.2506 5.0056-0.2982 0.8946-0.9588 0.8254-1.9929-0.2088zm448.45-147.3c0-0.6875 0.8437-1.25 1.875-1.25 1.0312 0 1.875 0.5625 1.875 1.25s-0.8438 1.25-1.875 1.25c-1.0313 0-1.875-0.5625-1.875-1.25zm-102.51-62.813c-2.7223-4.4649-3.0905-7.9358-1.3322-12.56 1.3113-3.4491 4.0463-4.4388 9.4709-3.427 2.9755 0.55488 3.75 1.3422 3.75 3.812 0 1.7894 0.93 3.4942 2.1875 4.01 3.4829 1.4285 2.5484 5.4058-2.1041 8.9544-5.7699 4.401-8.9349 4.1924-11.972-0.78913zm-48.624-119.72c-6.3366-5.0088-7.7147-8.1184-4.8622-10.971 2.8235-2.8235 6.8827-1.5846 11.48 3.5036 4.6948 5.1966 5.5838 8.4331 3.0205 10.996-2.1749 2.1749-2.6347 2.0065-9.6378-3.5291zm-5.7372-17.455c-1.375-0.59693-4.2637-0.79428-6.4194-0.43856-4.2954 0.70883-5.9125-0.68261-4.6418-3.9941 0.6977-1.8182 2.068-2.0456 9.0666-1.5047 9.831 0.75992 16.736 3.0579 13.87 4.6154-3.2697 1.7763-9.2856 2.446-11.875 1.3219zm-100.42-608.07c-3.0477-5.1655-7.8588-6.7539-22.634-7.4726-12.113-0.58927-16.324-2.7104-16.324-8.2232 0-4.669 3.3517-6.8698 12.5-8.208 19.708-2.8829 32.091 1.5172 39.408 14.003 3.8899 6.6377 3.8659 7.8351-0.2279 11.353-4.9997 4.2961-9.6446 3.766-12.723-1.4519zm362.29-365.7c0-0.6875 0.5625-1.25 1.25-1.25s1.25 0.5625 1.25 1.25-0.5625 1.25-1.25 1.25-1.25-0.5625-1.25-1.25z"/>
 </g>
</svg>
