<svg id="visual" viewBox="0 0 900 100" width="900" height="100" xmlns="http://www.w3.org/2000/svg" xmlns:xlink="http://www.w3.org/1999/xlink" version="1.1"><rect x="0" y="0" width="900" height="100" fill="#101010"></rect><path d="M0 34L16.7 31.5C33.3 29 66.7 24 100 21.3C133.3 18.7 166.7 18.3 200 19.2C233.3 20 266.7 22 300 24.5C333.3 27 366.7 30 400 32.7C433.3 35.3 466.7 37.7 500 36.7C533.3 35.7 566.7 31.3 600 27.5C633.3 23.7 666.7 20.3 700 20.7C733.3 21 766.7 25 800 29.2C833.3 33.3 866.7 37.7 883.3 39.8L900 42L900 101L883.3 101C866.7 101 833.3 101 800 101C766.7 101 733.3 101 700 101C666.7 101 633.3 101 600 101C566.7 101 533.3 101 500 101C466.7 101 433.3 101 400 101C366.7 101 333.3 101 300 101C266.7 101 233.3 101 200 101C166.7 101 133.3 101 100 101C66.7 101 33.3 101 16.7 101L0 101Z" fill="#69c5fa"></path><path d="M0 37L16.7 40.5C33.3 44 66.7 51 100 51C133.3 51 166.7 44 200 43.2C233.3 42.3 266.7 47.7 300 49.8C333.3 52 366.7 51 400 52.5C433.3 54 466.7 58 500 55.5C533.3 53 566.7 44 600 43.2C633.3 42.3 666.7 49.7 700 53.8C733.3 58 766.7 59 800 58.8C833.3 58.7 866.7 57.3 883.3 56.7L900 56L900 101L883.3 101C866.7 101 833.3 101 800 101C766.7 101 733.3 101 700 101C666.7 101 633.3 101 600 101C566.7 101 533.3 101 500 101C466.7 101 433.3 101 400 101C366.7 101 333.3 101 300 101C266.7 101 233.3 101 200 101C166.7 101 133.3 101 100 101C66.7 101 33.3 101 16.7 101L0 101Z" fill="#5fa5d0"></path><path d="M0 52L16.7 55.2C33.3 58.3 66.7 64.7 100 68C133.3 71.3 166.7 71.7 200 73C233.3 74.3 266.7 76.7 300 74C333.3 71.3 366.7 63.7 400 60.8C433.3 58 466.7 60 500 60.3C533.3 60.7 566.7 59.3 600 59.3C633.3 59.3 666.7 60.7 700 62C733.3 63.3 766.7 64.7 800 62.7C833.3 60.7 866.7 55.3 883.3 52.7L900 50L900 101L883.3 101C866.7 101 833.3 101 800 101C766.7 101 733.3 101 700 101C666.7 101 633.3 101 600 101C566.7 101 533.3 101 500 101C466.7 101 433.3 101 400 101C366.7 101 333.3 101 300 101C266.7 101 233.3 101 200 101C166.7 101 133.3 101 100 101C66.7 101 33.3 101 16.7 101L0 101Z" fill="#5587a8"></path><path d="M0 79L16.7 80.7C33.3 82.3 66.7 85.7 100 87.8C133.3 90 166.7 91 200 89.5C233.3 88 266.7 84 300 82.2C333.3 80.3 366.7 80.7 400 80.2C433.3 79.7 466.7 78.3 500 80C533.3 81.7 566.7 86.3 600 85.8C633.3 85.3 666.7 79.7 700 77.7C733.3 75.7 766.7 77.3 800 80C833.3 82.7 866.7 86.3 883.3 88.2L900 90L900 101L883.3 101C866.7 101 833.3 101 800 101C766.7 101 733.3 101 700 101C666.7 101 633.3 101 600 101C566.7 101 533.3 101 500 101C466.7 101 433.3 101 400 101C366.7 101 333.3 101 300 101C266.7 101 233.3 101 200 101C166.7 101 133.3 101 100 101C66.7 101 33.3 101 16.7 101L0 101Z" fill="#496a81"></path></svg>