<svg id="visual" viewBox="0 0 900 100" width="900" height="100" xmlns="http://www.w3.org/2000/svg" xmlns:xlink="http://www.w3.org/1999/xlink" version="1.1"><rect x="0" y="0" width="900" height="100" fill="#FC5130"></rect><path d="M0 51L18.8 52.2C37.7 53.3 75.3 55.7 112.8 57.3C150.3 59 187.7 60 225.2 58.8C262.7 57.7 300.3 54.3 337.8 53.7C375.3 53 412.7 55 450.2 54C487.7 53 525.3 49 562.8 47.7C600.3 46.3 637.7 47.7 675.2 48.8C712.7 50 750.3 51 787.8 50.8C825.3 50.7 862.7 49.3 881.3 48.7L900 48L900 0L881.3 0C862.7 0 825.3 0 787.8 0C750.3 0 712.7 0 675.2 0C637.7 0 600.3 0 562.8 0C525.3 0 487.7 0 450.2 0C412.7 0 375.3 0 337.8 0C300.3 0 262.7 0 225.2 0C187.7 0 150.3 0 112.8 0C75.3 0 37.7 0 18.8 0L0 0Z" fill="#faab69"></path><path d="M0 37L18.8 36.3C37.7 35.7 75.3 34.3 112.8 34.3C150.3 34.3 187.7 35.7 225.2 37.7C262.7 39.7 300.3 42.3 337.8 43.7C375.3 45 412.7 45 450.2 45.2C487.7 45.3 525.3 45.7 562.8 44.2C600.3 42.7 637.7 39.3 675.2 39.3C712.7 39.3 750.3 42.7 787.8 42.3C825.3 42 862.7 38 881.3 36L900 34L900 0L881.3 0C862.7 0 825.3 0 787.8 0C750.3 0 712.7 0 675.2 0C637.7 0 600.3 0 562.8 0C525.3 0 487.7 0 450.2 0C412.7 0 375.3 0 337.8 0C300.3 0 262.7 0 225.2 0C187.7 0 150.3 0 112.8 0C75.3 0 37.7 0 18.8 0L0 0Z" fill="#e28298"></path><path d="M0 33L18.8 31.5C37.7 30 75.3 27 112.8 25.8C150.3 24.7 187.7 25.3 225.2 25.7C262.7 26 300.3 26 337.8 27.2C375.3 28.3 412.7 30.7 450.2 29.8C487.7 29 525.3 25 562.8 23C600.3 21 637.7 21 675.2 22C712.7 23 750.3 25 787.8 27C825.3 29 862.7 31 881.3 32L900 33L900 0L881.3 0C862.7 0 825.3 0 787.8 0C750.3 0 712.7 0 675.2 0C637.7 0 600.3 0 562.8 0C525.3 0 487.7 0 450.2 0C412.7 0 375.3 0 337.8 0C300.3 0 262.7 0 225.2 0C187.7 0 150.3 0 112.8 0C75.3 0 37.7 0 18.8 0L0 0Z" fill="#8f79a8"></path><path d="M0 18L18.8 16.5C37.7 15 75.3 12 112.8 11.3C150.3 10.7 187.7 12.3 225.2 12.3C262.7 12.3 300.3 10.7 337.8 11.2C375.3 11.7 412.7 14.3 450.2 15C487.7 15.7 525.3 14.3 562.8 14.3C600.3 14.3 637.7 15.7 675.2 16C712.7 16.3 750.3 15.7 787.8 15.3C825.3 15 862.7 15 881.3 15L900 15L900 0L881.3 0C862.7 0 825.3 0 787.8 0C750.3 0 712.7 0 675.2 0C637.7 0 600.3 0 562.8 0C525.3 0 487.7 0 450.2 0C412.7 0 375.3 0 337.8 0C300.3 0 262.7 0 225.2 0C187.7 0 150.3 0 112.8 0C75.3 0 37.7 0 18.8 0L0 0Z" fill="#496a81"></path></svg>