<svg id="visual" viewBox="0 0 900 100" width="900" height="100" xmlns="http://www.w3.org/2000/svg" xmlns:xlink="http://www.w3.org/1999/xlink" version="1.1"><rect x="0" y="0" width="900" height="100" fill="#101010"></rect><path d="M0 43L18.8 48.2C37.7 53.3 75.3 63.7 112.8 69.3C150.3 75 187.7 76 225.2 72.8C262.7 69.7 300.3 62.3 337.8 58C375.3 53.7 412.7 52.3 450.2 53.3C487.7 54.3 525.3 57.7 562.8 60C600.3 62.3 637.7 63.7 675.2 60.2C712.7 56.7 750.3 48.3 787.8 47.7C825.3 47 862.7 54 881.3 57.5L900 61L900 0L881.3 0C862.7 0 825.3 0 787.8 0C750.3 0 712.7 0 675.2 0C637.7 0 600.3 0 562.8 0C525.3 0 487.7 0 450.2 0C412.7 0 375.3 0 337.8 0C300.3 0 262.7 0 225.2 0C187.7 0 150.3 0 112.8 0C75.3 0 37.7 0 18.8 0L0 0Z" fill="#faab69"></path><path d="M0 51L18.8 48.7C37.7 46.3 75.3 41.7 112.8 42.2C150.3 42.7 187.7 48.3 225.2 49.5C262.7 50.7 300.3 47.3 337.8 43.7C375.3 40 412.7 36 450.2 39.3C487.7 42.7 525.3 53.3 562.8 56.2C600.3 59 637.7 54 675.2 52.2C712.7 50.3 750.3 51.7 787.8 49.2C825.3 46.7 862.7 40.3 881.3 37.2L900 34L900 0L881.3 0C862.7 0 825.3 0 787.8 0C750.3 0 712.7 0 675.2 0C637.7 0 600.3 0 562.8 0C525.3 0 487.7 0 450.2 0C412.7 0 375.3 0 337.8 0C300.3 0 262.7 0 225.2 0C187.7 0 150.3 0 112.8 0C75.3 0 37.7 0 18.8 0L0 0Z" fill="#fb9250"></path><path d="M0 44L18.8 40.7C37.7 37.3 75.3 30.7 112.8 27.8C150.3 25 187.7 26 225.2 29C262.7 32 300.3 37 337.8 40.7C375.3 44.3 412.7 46.7 450.2 47.7C487.7 48.7 525.3 48.3 562.8 42.7C600.3 37 637.7 26 675.2 22.2C712.7 18.3 750.3 21.7 787.8 23.2C825.3 24.7 862.7 24.3 881.3 24.2L900 24L900 0L881.3 0C862.7 0 825.3 0 787.8 0C750.3 0 712.7 0 675.2 0C637.7 0 600.3 0 562.8 0C525.3 0 487.7 0 450.2 0C412.7 0 375.3 0 337.8 0C300.3 0 262.7 0 225.2 0C187.7 0 150.3 0 112.8 0C75.3 0 37.7 0 18.8 0L0 0Z" fill="#fb753c"></path><path d="M0 12L18.8 12.8C37.7 13.7 75.3 15.3 112.8 17.3C150.3 19.3 187.7 21.7 225.2 21.5C262.7 21.3 300.3 18.7 337.8 17C375.3 15.3 412.7 14.7 450.2 14.2C487.7 13.7 525.3 13.3 562.8 11.8C600.3 10.3 637.7 7.7 675.2 9.2C712.7 10.7 750.3 16.3 787.8 18.8C825.3 21.3 862.7 20.7 881.3 20.3L900 20L900 0L881.3 0C862.7 0 825.3 0 787.8 0C750.3 0 712.7 0 675.2 0C637.7 0 600.3 0 562.8 0C525.3 0 487.7 0 450.2 0C412.7 0 375.3 0 337.8 0C300.3 0 262.7 0 225.2 0C187.7 0 150.3 0 112.8 0C75.3 0 37.7 0 18.8 0L0 0Z" fill="#fc5130"></path></svg>